<svg width="324" height="113" viewBox="0 0 324 113" fill="none" xmlns="http://www.w3.org/2000/svg">
    <rect width="324" height="113" fill="#C4C4C4"/>
    <rect width="324" height="113" fill="url(#paint0_linear)"/>
    <path d="M62.272 38.872H50.496L43.712 87H31.424L38.08 38.872H26.176L27.456 28.888H63.808L62.272 38.872ZM81.753 60.504C82.3503 56.152 82.2223 53.1653 81.369 51.544C80.5157 49.9227 79.2783 49.112 77.657 49.112C76.121 49.112 74.5423 49.9653 72.921 51.672C71.385 53.2933 70.3183 56.2373 69.721 60.504H81.753ZM76.121 79.064C79.8757 79.064 83.6303 77.9973 87.385 75.864L88.665 83.8C86.617 85.336 83.2037 86.5733 78.425 87.512C76.633 87.9387 74.585 88.152 72.281 88.152C69.977 88.152 67.7157 87.7253 65.497 86.872C63.3637 86.0187 61.6143 84.696 60.249 82.904C57.0917 78.808 56.0677 73.048 57.177 65.624C58.2863 57.6027 60.9317 51.3307 65.113 46.808C69.0383 42.712 73.6463 40.664 78.937 40.664C86.9583 40.664 91.6943 44.504 93.145 52.184C93.913 56.1947 93.6143 60.8027 92.249 66.008C91.993 67.1173 91.7797 67.7573 91.609 67.928H68.697C68.0997 71.8533 68.5263 74.712 69.977 76.504C71.513 78.2107 73.561 79.064 76.121 79.064ZM96.411 76.632C96.667 76.7173 97.1363 76.9307 97.819 77.272C98.5017 77.6133 99.3123 77.9547 100.251 78.296C102.64 79.064 104.646 79.448 106.267 79.448C107.888 79.448 109.168 79.192 110.107 78.68C111.131 78.0827 111.728 77.1013 111.899 75.736C112.155 74.2853 111.942 73.0907 111.259 72.152C110.576 71.128 109.68 70.1467 108.571 69.208C107.547 68.2693 106.395 67.3307 105.115 66.392C103.835 65.368 102.683 64.216 101.659 62.936C99.2697 60.12 98.331 56.8347 98.843 53.08C99.355 49.3253 101.062 46.3387 103.963 44.12C106.95 41.816 110.918 40.664 115.867 40.664C119.707 40.664 123.419 41.2613 127.003 42.456L125.211 51.16C124.528 51.0747 123.334 50.776 121.627 50.264C120.006 49.752 118.256 49.496 116.379 49.496C112.795 49.496 110.79 50.6907 110.363 53.08C110.192 54.1893 110.448 55.2133 111.131 56.152C111.899 57.0053 112.838 57.9013 113.947 58.84C115.056 59.6933 116.294 60.632 117.659 61.656C119.024 62.5947 120.262 63.6613 121.371 64.856C123.931 67.5867 124.912 70.8293 124.315 74.584C123.974 78.3387 122.352 81.5387 119.451 84.184C116.379 86.8293 112.198 88.152 106.907 88.152C103.408 88.152 100.763 87.8107 98.971 87.128C95.899 86.0187 93.979 85.1653 93.211 84.568L96.411 76.632ZM156.322 41.688L155.298 50.392H145.442L142.37 72.152C142.029 74.1147 142.029 75.5653 142.37 76.504C142.712 77.4427 143.565 77.912 144.93 77.912C146.381 77.912 147.618 77.7413 148.642 77.4C149.666 76.9733 150.349 76.7173 150.69 76.632V85.08C150.349 85.1653 149.837 85.3787 149.154 85.72C148.472 86.0613 147.704 86.4027 146.85 86.744C144.717 87.6827 142.328 88.152 139.682 88.152C135.586 88.152 132.813 87.0853 131.362 84.952C129.912 82.7333 129.528 79.0213 130.21 73.816L133.666 50.392H128.802L129.954 41.688H134.818L136.354 30.808L148.514 28.888L146.594 41.688H156.322ZM188.53 70.66H169.868L165.052 87H156.624L175.114 26.8H183.198L201.688 87H193.346L188.53 70.66ZM186.38 63.35L179.156 38.926L172.018 63.35H186.38ZM219.456 63.576L205.92 39.96H215.808L224.928 58.776L233.28 39.96H243.36L230.112 62.808L243.744 87H233.76L224.64 68.376L215.616 87H205.728L219.456 63.576ZM250.09 19.8H258.442V29.304H250.09V19.8ZM250.09 39.96H258.442V87H250.09V39.96ZM281.588 87.96C276.084 87.96 271.316 86.68 267.284 84.12L268.34 75.672C272.436 78.872 276.66 80.472 281.012 80.472C283.316 80.472 285.108 79.992 286.388 79.032C287.732 78.072 288.404 76.664 288.404 74.808C288.404 73.4 288.084 72.248 287.444 71.352C286.868 70.456 285.876 69.592 284.468 68.76C283.06 67.928 280.884 66.84 277.94 65.496C274.484 63.896 271.956 62.072 270.356 60.024C268.756 57.976 267.956 55.32 267.956 52.056C267.956 48.216 269.3 45.08 271.988 42.648C274.676 40.216 278.292 39 282.836 39C287.444 39 291.476 40.024 294.932 42.072L293.876 49.848C292.148 48.696 290.516 47.864 288.98 47.352C287.444 46.776 285.62 46.488 283.508 46.488C281.268 46.488 279.508 46.968 278.228 47.928C276.948 48.888 276.308 50.232 276.308 51.96C276.308 53.688 276.852 55 277.94 55.896C279.092 56.792 281.3 57.976 284.564 59.448C289.108 61.496 292.308 63.576 294.164 65.688C296.02 67.736 296.948 70.456 296.948 73.848C296.948 78.264 295.572 81.72 292.82 84.216C290.068 86.712 286.324 87.96 281.588 87.96Z" fill="white"/>
    <defs>
        <linearGradient id="paint0_linear" x1="317.657" y1="106.668" x2="-0.0353839" y2="6.93169" gradientUnits="userSpaceOnUse">
            <stop offset="0.00845971" stop-color="#6F3F83"/>
            <stop offset="1" stop-color="#BD3B5E"/>
        </linearGradient>
    </defs>
</svg>
