<svg width="81" height="28" viewBox="0 0 81 28" fill="none" xmlns="http://www.w3.org/2000/svg">
    <rect width="80.2832" height="28" fill="#C4C4C4"/>
    <rect width="80.2832" height="28" fill="url(#paint0_linear)"/>
    <path d="M18.8652 10.1854H16.2992L14.821 20.7472H12.1435L13.5938 10.1854H11L11.2789 7.99438H19.1998L18.8652 10.1854Z" fill="white"/>
    <path d="M23.11 14.9326C23.2401 13.9775 23.2123 13.3221 23.0263 12.9663C22.8404 12.6105 22.5708 12.4326 22.2175 12.4326C21.8828 12.4326 21.5388 12.6199 21.1855 12.9944C20.8508 13.3502 20.6184 13.9963 20.4883 14.9326H23.11ZM21.8828 19.0056C22.7009 19.0056 23.519 18.7715 24.3372 18.3034L24.6161 20.0449C24.1698 20.382 23.4261 20.6536 22.3848 20.8596C21.9944 20.9532 21.5481 21 21.0461 21C20.544 21 20.0513 20.9064 19.5679 20.7191C19.103 20.5318 18.7219 20.2416 18.4244 19.8483C17.7364 18.9494 17.5133 17.6854 17.755 16.0562C17.9967 14.2959 18.5731 12.9195 19.4842 11.927C20.3395 11.0281 21.3436 10.5787 22.4964 10.5787C24.2442 10.5787 25.2762 11.4213 25.5923 13.1067C25.7596 13.9869 25.6945 14.9981 25.397 16.1404C25.3412 16.3839 25.2948 16.5243 25.2576 16.5618H20.2651C20.135 17.4232 20.228 18.0506 20.544 18.4438C20.8787 18.8184 21.325 19.0056 21.8828 19.0056Z" fill="white"/>
    <path d="M26.3039 18.4719C26.3597 18.4906 26.4619 18.5375 26.6107 18.6124C26.7594 18.6873 26.9361 18.7622 27.1406 18.8371C27.6612 19.0056 28.0982 19.0899 28.4515 19.0899C28.8048 19.0899 29.0837 19.0337 29.2882 18.9213C29.5113 18.7903 29.6415 18.5749 29.6787 18.2753C29.7344 17.9569 29.688 17.6948 29.5392 17.4888C29.3905 17.264 29.1952 17.0487 28.9535 16.8427C28.7304 16.6367 28.4794 16.4307 28.2005 16.2247C27.9216 16 27.6705 15.7472 27.4474 15.4663C26.9268 14.8483 26.7223 14.1273 26.8338 13.3034C26.9454 12.4794 27.3173 11.824 27.9494 11.3371C28.6002 10.8315 29.4648 10.5787 30.5433 10.5787C31.38 10.5787 32.1888 10.7097 32.9698 10.9719L32.5793 12.882C32.4305 12.8633 32.1702 12.7978 31.7984 12.6854C31.4451 12.573 31.0639 12.5169 30.6548 12.5169C29.8739 12.5169 29.4369 12.779 29.344 13.3034C29.3068 13.5468 29.3626 13.7715 29.5113 13.9775C29.6787 14.1648 29.8832 14.3614 30.1249 14.5674C30.3666 14.7547 30.6362 14.9607 30.9337 15.1854C31.2312 15.3914 31.5009 15.6255 31.7426 15.8876C32.3004 16.4869 32.5142 17.1985 32.3841 18.0225C32.3097 18.8464 31.9564 19.5487 31.3242 20.1292C30.6548 20.7097 29.7437 21 28.5909 21C27.8286 21 27.2522 20.9251 26.8617 20.7753C26.1923 20.5318 25.774 20.3446 25.6066 20.2135L26.3039 18.4719Z" fill="white"/>
    <path d="M39.3583 10.8034L39.1352 12.7135H36.9876L36.3182 17.4888C36.2438 17.9195 36.2438 18.2378 36.3182 18.4438C36.3926 18.6498 36.5785 18.7528 36.876 18.7528C37.1921 18.7528 37.4617 18.7154 37.6849 18.6404C37.908 18.5468 38.0567 18.4906 38.1311 18.4719V20.3258C38.0567 20.3446 37.9452 20.3914 37.7964 20.4663C37.6477 20.5412 37.4803 20.6161 37.2944 20.691C36.8295 20.897 36.3089 21 35.7325 21C34.84 21 34.2357 20.7659 33.9196 20.2978C33.6035 19.8109 33.5199 18.9963 33.6686 17.8539L34.4217 12.7135H33.3618L33.6128 10.8034H34.6727L35.0074 8.41573L37.657 7.99438L37.2386 10.8034H39.3583Z" fill="white"/>
    <path d="M46.3763 17.1613H42.3099L41.2605 20.7472H39.4241L43.453 7.53617H45.2145L49.2433 20.7472H47.4257L46.3763 17.1613ZM45.9078 15.5571L44.3337 10.1972L42.7784 15.5571H45.9078Z" fill="white"/>
    <path d="M53.1148 15.6067L50.1653 10.4242H52.3199L54.3071 14.5534L56.127 10.4242H58.3234L55.4367 15.4382L58.407 20.7472H56.2316L54.2443 16.6601L52.2781 20.7472H50.1235L53.1148 15.6067Z" fill="white"/>
    <path d="M59.7899 6H61.6098V8.08567H59.7899V6ZM59.7899 10.4242H61.6098V20.7472H59.7899V10.4242Z" fill="white"/>
    <path d="M66.6531 20.9579C65.4538 20.9579 64.4149 20.677 63.5363 20.1152L63.7664 18.2612C64.6589 18.9635 65.5793 19.3146 66.5276 19.3146C67.0296 19.3146 67.4201 19.2093 67.699 18.9986C67.9919 18.7879 68.1383 18.4789 68.1383 18.0716C68.1383 17.7626 68.0686 17.5098 67.9291 17.3132C67.8036 17.1166 67.5875 16.927 67.2807 16.7444C66.9739 16.5618 66.4997 16.323 65.8582 16.0281C65.1052 15.677 64.5544 15.2767 64.2057 14.8272C63.8571 14.3778 63.6828 13.7949 63.6828 13.0787C63.6828 12.236 63.9756 11.5478 64.5613 11.014C65.147 10.4803 65.9349 10.2135 66.9251 10.2135C67.9291 10.2135 68.8077 10.4382 69.5607 10.8876L69.3306 12.5941C68.9541 12.3413 68.5985 12.1587 68.2638 12.0463C67.9291 11.9199 67.5317 11.8567 67.0715 11.8567C66.5834 11.8567 66.1999 11.9621 65.921 12.1728C65.6421 12.3834 65.5026 12.6784 65.5026 13.0576C65.5026 13.4368 65.6212 13.7247 65.8582 13.9213C66.1093 14.118 66.5904 14.3778 67.3016 14.7008C68.2917 15.1503 68.989 15.6067 69.3934 16.0702C69.7978 16.5197 70 17.1166 70 17.861C70 18.8301 69.7002 19.5885 69.1005 20.1362C68.5009 20.684 67.6851 20.9579 66.6531 20.9579Z" fill="white"/>
    <defs>
        <linearGradient id="paint0_linear" x1="78.7114" y1="26.431" x2="-0.00876733" y2="1.71759" gradientUnits="userSpaceOnUse">
            <stop offset="0.00845971" stop-color="#6F3F83"/>
            <stop offset="1" stop-color="#BD3B5E"/>
        </linearGradient>
    </defs>
</svg>
