<svg width="755" height="113" fill="none" xmlns="http://www.w3.org/2000/svg">
  <path fill="#C4C4C4" d="M0 0h324v113H0z"/>
  <path fill="url(#paint0_linear)" d="M0 0h324v113H0z"/>
  <path d="M62.3 38.9H50.5L43.7 87H31.4l6.7-48.1H26l1.4-10h36.3l-1.5 10zm19.5 21.6c.6-4.3.4-7.3-.4-9-.9-1.6-2.1-2.4-3.7-2.4s-3.2.9-4.8 2.6c-1.5 1.6-2.6 4.5-3.2 8.8h12zM76 79.1c3.8 0 7.5-1.1 11.3-3.2l1.3 7.9a26 26 0 01-10.3 3.7c-1.8.4-3.8.7-6.1.7s-4.6-.5-6.8-1.3c-2.1-.9-3.9-2.2-5.3-4-3.1-4-4.1-9.9-3-17.3 1-8 3.7-14.3 8-18.8 3.8-4 8.4-6.1 13.7-6.1 8 0 12.8 3.8 14.2 11.5a31.4 31.4 0 01-1.5 15.7H68.7c-.6 4-.2 6.8 1.3 8.6a7.9 7.9 0 006.1 2.6zm20.3-2.5l1.4.7 2.5 1c2.3.8 4.3 1.1 6 1.1a8 8 0 003.8-.7c1-.6 1.6-1.6 1.8-3 .3-1.4 0-2.6-.6-3.5a41 41 0 00-6.1-5.8 22 22 0 01-3.5-3.5 12 12 0 01-2.9-9.8 13 13 0 015.2-9c3-2.3 7-3.4 11.9-3.4 3.8 0 7.5.6 11.1 1.8l-1.8 8.7c-.7-.1-1.9-.4-3.6-1-1.6-.4-3.3-.7-5.2-.7-3.6 0-5.6 1.2-6 3.6a4 4 0 00.7 3 29 29 0 002.8 2.7l3.8 2.9c1.3.9 2.6 2 3.7 3.2a11 11 0 013 9.7c-.4 3.7-2 7-5 9.6-3 2.6-7.2 4-12.5 4a23.5 23.5 0 01-13.7-3.6l3.2-8zm60-35l-1.1 8.8h-9.9l-3 21.8c-.4 2-.4 3.4 0 4.3.3 1 1.2 1.4 2.5 1.4 1.5 0 2.7-.2 3.7-.5l2-.8v8.5c-.3 0-.8.3-1.4.6l-2.3 1c-2.2 1-4.6 1.5-7.2 1.5-4.1 0-6.9-1.1-8.3-3.2-1.5-2.3-1.9-6-1.2-11.2l3.5-23.4h-4.9l1.2-8.7h4.8l1.6-10.9 12.1-2-2 12.9h9.8zm32.1 29H170L165 87h-8.5l18.5-60.2h8.1L201.7 87h-8.4l-4.8-16.3zm-2.1-7.2l-7.2-24.5-7.2 24.5h14.4zm33 .2L206 40h10l9 18.8 8.4-18.8h10l-13.2 22.8L243.7 87h-10l-9-18.6-9 18.6h-10l13.8-23.4zm30.7-43.8h8.3v9.5h-8.3v-9.5zm0 20.2h8.3v47h-8.3V40zm31.5 48c-5.5 0-10.3-1.3-14.3-3.9l1-8.4c4.1 3.2 8.4 4.8 12.7 4.8 2.3 0 4.1-.5 5.4-1.5 1.3-1 2-2.3 2-4.2 0-1.4-.3-2.6-1-3.4a8.7 8.7 0 00-3-2.6c-1.3-.9-3.5-2-6.5-3.3-3.4-1.6-6-3.4-7.5-5.5-1.6-2-2.4-4.7-2.4-8 0-3.8 1.3-7 4-9.4 2.7-2.4 6.3-3.6 10.8-3.6 4.6 0 8.7 1 12.1 3l-1 7.8c-1.8-1.1-3.4-2-5-2.4-1.5-.6-3.3-1-5.4-1-2.2 0-4 .6-5.3 1.5-1.3 1-1.9 2.3-1.9 4 0 1.8.6 3.1 1.6 4 1.2.9 3.4 2 6.7 3.5 4.5 2.1 7.7 4.2 9.6 6.3 1.8 2 2.7 4.8 2.7 8.1 0 4.5-1.3 8-4 10.4a16 16 0 01-11.3 3.8z" fill="#fff"/>
  <path d="M351.7 38.2h6V83h-6V38.2zm15.5 0h6.6L391.6 71V38.2h5.8V83h-5.5l-18.8-34.6V83h-5.9V38.2zm47.3 5.3h-11.1v-5.3h28.1v5.3h-11.1V83h-5.9V43.5zm23-5.3h24v5.3h-18.2V57h14.4v5.4h-14.4v15.4H462V83h-24.5V38.2zm31.2 0h5.8v39.5h17V83h-22.8V38.2zm28.1 0h5.8v39.5h17.1V83h-22.9V38.2zm28.7 0h5.8V83h-5.8V38.2zm11.2 50.6c2 0 3.3-.4 4-1.1.7-.8 1-2.3 1-4.5v-45h5.8V85c0 3-.7 5.2-2.3 6.7a9 9 0 01-6.6 2.3h-1.4l-.5-5.2zm34-50.6h11.6c4.7 0 8.3 1.2 11 3.7 2.6 2.5 3.9 6 3.9 10.8 0 4.8-1.3 8.4-4 11a15.3 15.3 0 01-11 3.6h-5.6V83h-5.9V38.2zm11 23.7c6.3 0 9.4-3 9.4-9.2 0-6.1-3.1-9.2-9.3-9.2h-5.2V62h5.2zm21.5-23.7h5.8v39.5h17.1V83h-23V38.2zm43 45.7c-5.4 0-9.4-1.6-12-4.9a21.5 21.5 0 01-4-13.7V38.2h5.9v25.4c0 3.1.2 5.7.7 7.9a9.8 9.8 0 003 5.2c1.5 1.2 3.6 1.9 6.4 1.9 2.8 0 5-.7 6.5-2 1.4-1.3 2.4-3 2.9-5.1.5-2.2.8-4.8.8-7.9V38.2h5.8v27c0 6-1.3 10.7-4 13.9-2.5 3.2-6.5 4.8-12 4.8zm43.3 0c-4.3 0-8-1-11.2-3-3.1-2-5.6-4.7-7.3-8.2a28.1 28.1 0 01-2.5-12.1c0-4.7 1-8.7 2.7-12.2a20 20 0 017.4-8.2c3.1-2 6.7-2.9 10.7-2.9 3.7 0 7 .6 10 2l-.6 5.4a21 21 0 00-8.8-2c-3.1 0-5.9.7-8.1 2.3a14.8 14.8 0 00-5 6.4 23.3 23.3 0 00-1.8 9.2 21 21 0 003.8 13c2.5 3.3 6.2 5 11 5 2 0 3.6-.3 5-1V65.9H689v-5.3h11.5V81a22 22 0 01-11 3zm19-45.7h6V83h-6V38.2zm15.6 0h6.6L748.4 71V38.2h5.8V83h-5.4l-19-34.6V83h-5.7V38.2z" fill="#351543"/>
  <defs>
    <linearGradient id="paint0_linear" x1="317.7" y1="106.7" x2="0" y2="6.9" gradientUnits="userSpaceOnUse">
      <stop offset="0" stop-color="#6F3F83"/>
      <stop offset="1" stop-color="#BD3B5E"/>
    </linearGradient>
  </defs>
</svg>
